<svg width="24" height="24" viewBox="0 0 24 24" fill="none" xmlns="http://www.w3.org/2000/svg">
<g clip-path="url(#clip0_2764_6197)">
<path d="M13.06 3.28292C12.7787 3.00202 12.3975 2.84424 12 2.84424C11.6025 2.84424 11.2212 3.00202 10.94 3.28292L5.28097 8.93892C4.99958 9.22031 4.84149 9.60197 4.84149 9.99992C4.84149 10.3979 4.99958 10.7795 5.28097 11.0609C5.56237 11.3423 5.94402 11.5004 6.34197 11.5004C6.73992 11.5004 7.12158 11.3423 7.40297 11.0609L10.5 7.96492V19.4999C10.5 19.8977 10.658 20.2793 10.9393 20.5606C11.2206 20.8419 11.6021 20.9999 12 20.9999C12.3978 20.9999 12.7793 20.8419 13.0606 20.5606C13.3419 20.2793 13.5 19.8977 13.5 19.4999V7.96492L16.596 11.0609C16.7353 11.2003 16.9007 11.3108 17.0828 11.3862C17.2648 11.4616 17.4599 11.5004 17.657 11.5004C17.854 11.5004 18.0491 11.4616 18.2312 11.3862C18.4132 11.3108 18.5786 11.2003 18.718 11.0609C18.8573 10.9216 18.9678 10.7562 19.0432 10.5741C19.1186 10.3921 19.1575 10.197 19.1575 9.99992C19.1575 9.80287 19.1186 9.60776 19.0432 9.42571C18.9678 9.24366 18.8573 9.07825 18.718 8.93892L13.06 3.28292Z" fill="white"/>
</g>
<defs>
<clipPath id="clip0_2764_6197">
<rect width="24" height="24" fill="white"/>
</clipPath>
</defs>
</svg>
