<svg width="23" height="27" viewBox="0 0 23 27" fill="none" xmlns="http://www.w3.org/2000/svg">
<path d="M22.6799 5.85772C22.5956 5.79063 22.4946 5.74751 22.3878 5.7329C22.281 5.7183 22.1722 5.73274 22.0729 5.77472L12.4129 9.95772C11.9929 10.1407 11.4669 10.2277 10.9269 10.2277C10.1739 10.2307 9.39494 10.0557 8.85194 9.81772C8.68639 9.74818 8.52881 9.66101 8.38194 9.55772C8.42261 9.53772 8.47094 9.51638 8.52694 9.49372L17.3129 5.68972L18.6229 6.24972V4.61272C18.6246 4.49603 18.6 4.38048 18.551 4.27456C18.502 4.16864 18.4299 4.07506 18.3399 4.00072C18.2563 3.93301 18.1557 3.88949 18.049 3.87486C17.9424 3.86023 17.8338 3.87505 17.7349 3.91772L8.07494 8.10072C7.77694 8.22072 7.52094 8.36872 7.30494 8.58372C7.05509 8.83067 6.91309 9.16644 6.90994 9.51772C6.90994 9.52772 6.91294 9.54472 6.91294 9.54472V24.2747L6.91094 24.2947L6.91394 24.3047V24.3207H6.91594C6.93594 24.8357 7.19594 25.1637 7.44394 25.3957C8.22394 26.0837 9.53394 26.4687 10.9279 26.4887C11.5879 26.4887 12.2579 26.3887 12.8779 26.1227L22.5409 21.9387C22.7959 21.8287 22.9629 21.5557 22.9629 21.2467V6.46972C22.9646 6.35303 22.94 6.23748 22.891 6.13156C22.842 6.02564 22.7699 5.93206 22.6799 5.85772ZM16.5529 3.05772C16.5359 2.83772 16.4449 2.62772 16.2829 2.50172C16.1986 2.43463 16.0976 2.39151 15.9908 2.37691C15.884 2.3623 15.7752 2.37674 15.6759 2.41872L6.01594 6.59972C5.59594 6.78172 5.06894 6.86972 4.52994 6.86972C3.77694 6.87172 2.99794 6.69672 2.45494 6.45772C2.28948 6.38881 2.1319 6.30232 1.98494 6.19972C2.02561 6.17972 2.07394 6.15838 2.12994 6.13572L10.9169 2.33172L12.2269 2.89172V1.25672C12.2284 1.13995 12.2037 1.02435 12.1545 0.918422C12.1054 0.812499 12.0331 0.718963 11.9429 0.644717C11.8587 0.57781 11.7579 0.534801 11.6513 0.520198C11.5447 0.505596 11.4361 0.519936 11.3369 0.561717L1.67694 4.74572C1.37894 4.86572 1.12394 5.01272 0.90694 5.22872C0.657457 5.47583 0.515825 5.81158 0.512939 6.16272C0.512939 6.17472 0.515939 6.19072 0.515939 6.19072V20.9677H0.51794C0.53794 21.4827 0.797939 21.8107 1.04594 22.0427C1.82594 22.7307 3.13594 23.1147 4.53094 23.1347C4.90977 23.1323 5.28737 23.0914 5.65794 23.0127V9.54372C5.64794 8.84372 5.92794 8.17172 6.41994 7.68772C6.76122 7.35761 7.1661 7.10039 7.60994 6.93172L16.5529 3.05772Z" fill="#FF9500"/>
</svg>
