<svg width="12" height="23" viewBox="0 0 12 23" fill="none" xmlns="http://www.w3.org/2000/svg">
<path d="M8.21094 11.2998L0.44065 2.88198C0.154706 2.56124 -0.0035168 2.13168 5.97612e-05 1.68579C0.00363632 1.23991 0.168726 0.813385 0.459771 0.498085C0.750817 0.182786 1.14453 0.0039389 1.55612 6.42859e-05C1.9677 -0.00381032 2.36423 0.167598 2.66029 0.47737L11.5404 10.0975C11.8347 10.4164 12 10.8489 12 11.2998C12 11.7507 11.8347 12.1832 11.5404 12.5021L2.66029 22.1222C2.36423 22.432 1.9677 22.6034 1.55612 22.5995C1.14453 22.5956 0.750817 22.4168 0.459771 22.1015C0.168726 21.7862 0.00363632 21.3597 5.97612e-05 20.9138C-0.0035168 20.4679 0.154706 20.0383 0.44065 19.7176L8.21094 11.2998Z" fill="#FF9500"/>
</svg>
