<svg width="22" height="22" viewBox="0 0 22 22" fill="none" xmlns="http://www.w3.org/2000/svg">
<path d="M15.5328 12.667L11.7558 8.88902C11.6504 8.7835 11.5252 8.69978 11.3874 8.64267C11.2496 8.58555 11.102 8.55615 10.9528 8.55615C10.8036 8.55615 10.656 8.58555 10.5182 8.64267C10.3804 8.69978 10.2552 8.7835 10.1498 8.88902L6.4668 12.667" stroke="#ddd" stroke-width="1.5" stroke-linecap="round" stroke-linejoin="round"/>
<path d="M11 20.5C13.5196 20.5 15.9359 19.4991 17.7175 17.7175C19.4991 15.9359 20.5 13.5196 20.5 11C20.5 8.48044 19.4991 6.06408 17.7175 4.28249C15.9359 2.50089 13.5196 1.5 11 1.5C8.48044 1.5 6.06408 2.50089 4.28249 4.28249C2.50089 6.06408 1.5 8.48044 1.5 11C1.5 13.5196 2.50089 15.9359 4.28249 17.7175C6.06408 19.4991 8.48044 20.5 11 20.5Z" stroke="#ddd" stroke-width="1.4" stroke-linecap="round" stroke-linejoin="round"/>
</svg>
