<svg width="14" height="18" viewBox="0 0 14 18" fill="none" xmlns="http://www.w3.org/2000/svg">
<path fill-rule="evenodd" clip-rule="evenodd" d="M4.5 2C4.5 2.53043 4.28929 3.03914 3.91421 3.41421C3.53914 3.78929 3.03043 4 2.5 4C1.96957 4 1.46086 3.78929 1.08579 3.41421C0.710714 3.03914 0.5 2.53043 0.5 2C0.5 1.46957 0.710714 0.960859 1.08579 0.585786C1.46086 0.210714 1.96957 0 2.5 0C3.03043 0 3.53914 0.210714 3.91421 0.585786C4.28929 0.960859 4.5 1.46957 4.5 2ZM2.5 11C3.03043 11 3.53914 10.7893 3.91421 10.4142C4.28929 10.0391 4.5 9.53043 4.5 9C4.5 8.46957 4.28929 7.96086 3.91421 7.58579C3.53914 7.21071 3.03043 7 2.5 7C1.96957 7 1.46086 7.21071 1.08579 7.58579C0.710714 7.96086 0.5 8.46957 0.5 9C0.5 9.53043 0.710714 10.0391 1.08579 10.4142C1.46086 10.7893 1.96957 11 2.5 11ZM2.5 18C3.03043 18 3.53914 17.7893 3.91421 17.4142C4.28929 17.0391 4.5 16.5304 4.5 16C4.5 15.4696 4.28929 14.9609 3.91421 14.5858C3.53914 14.2107 3.03043 14 2.5 14C1.96957 14 1.46086 14.2107 1.08579 14.5858C0.710714 14.9609 0.5 15.4696 0.5 16C0.5 16.5304 0.710714 17.0391 1.08579 17.4142C1.46086 17.7893 1.96957 18 2.5 18ZM13.5 2C13.5 2.53043 13.2893 3.03914 12.9142 3.41421C12.5391 3.78929 12.0304 4 11.5 4C10.9696 4 10.4609 3.78929 10.0858 3.41421C9.71071 3.03914 9.5 2.53043 9.5 2C9.5 1.46957 9.71071 0.960859 10.0858 0.585786C10.4609 0.210714 10.9696 0 11.5 0C12.0304 0 12.5391 0.210714 12.9142 0.585786C13.2893 0.960859 13.5 1.46957 13.5 2ZM11.5 11C12.0304 11 12.5391 10.7893 12.9142 10.4142C13.2893 10.0391 13.5 9.53043 13.5 9C13.5 8.46957 13.2893 7.96086 12.9142 7.58579C12.5391 7.21071 12.0304 7 11.5 7C10.9696 7 10.4609 7.21071 10.0858 7.58579C9.71071 7.96086 9.5 8.46957 9.5 9C9.5 9.53043 9.71071 10.0391 10.0858 10.4142C10.4609 10.7893 10.9696 11 11.5 11ZM11.5 18C12.0304 18 12.5391 17.7893 12.9142 17.4142C13.2893 17.0391 13.5 16.5304 13.5 16C13.5 15.4696 13.2893 14.9609 12.9142 14.5858C12.5391 14.2107 12.0304 14 11.5 14C10.9696 14 10.4609 14.2107 10.0858 14.5858C9.71071 14.9609 9.5 15.4696 9.5 16C9.5 16.5304 9.71071 17.0391 10.0858 17.4142C10.4609 17.7893 10.9696 18 11.5 18Z" fill="currentColor"/>
</svg>
