<svg width="16" height="16" viewBox="0 0 16 16" fill="none" xmlns="http://www.w3.org/2000/svg">
<path d="M14 8C14 8.8 11.3133 12 8 12C4.68667 12 2 8.8 2 8C2 7.2 4.68667 4 8 4C11.3133 4 14 7.2 14 8Z" stroke="#9399A2"/>
<path d="M10 8C10 8.53043 9.78929 9.03914 9.41421 9.41421C9.03914 9.78929 8.53043 10 8 10C7.46957 10 6.96086 9.78929 6.58579 9.41421C6.21071 9.03914 6 8.53043 6 8C6 7.46957 6.21071 6.96086 6.58579 6.58579C6.96086 6.21071 7.46957 6 8 6C8.53043 6 9.03914 6.21071 9.41421 6.58579C9.78929 6.96086 10 7.46957 10 8Z" stroke="#9399A2"/>
</svg>
