<svg width="24" height="24" viewBox="0 0 24 24" fill="none" xmlns="http://www.w3.org/2000/svg">
<path fill-rule="evenodd" clip-rule="evenodd" d="M15 6.75C15 7.54565 14.6839 8.30871 14.1213 8.87132C13.5587 9.43393 12.7956 9.75 12 9.75C11.2044 9.75 10.4413 9.43393 9.87868 8.87132C9.31607 8.30871 9 7.54565 9 6.75C9 5.95435 9.31607 5.19129 9.87868 4.62868C10.4413 4.06607 11.2044 3.75 12 3.75C12.7956 3.75 13.5587 4.06607 14.1213 4.62868C14.6839 5.19129 15 5.95435 15 6.75ZM17.25 6.75C17.25 8.14239 16.6969 9.47774 15.7123 10.4623C14.7277 11.4469 13.3924 12 12 12C10.6076 12 9.27226 11.4469 8.28769 10.4623C7.30312 9.47774 6.75 8.14239 6.75 6.75C6.75 5.35761 7.30312 4.02226 8.28769 3.03769C9.27226 2.05312 10.6076 1.5 12 1.5C13.3924 1.5 14.7277 2.05312 15.7123 3.03769C16.6969 4.02226 17.25 5.35761 17.25 6.75ZM3.75 18.75C3.75 18.444 4.08 17.5365 5.73 16.5615C7.257 15.66 9.48 15 12 15C14.52 15 16.743 15.66 18.27 16.5615C19.92 17.5365 20.25 18.444 20.25 18.75C20.25 19.1478 20.092 19.5294 19.8107 19.8107C19.5294 20.092 19.1478 20.25 18.75 20.25H5.25C4.85218 20.25 4.47064 20.092 4.18934 19.8107C3.90804 19.5294 3.75 19.1478 3.75 18.75ZM12 12.75C6.225 12.75 1.5 15.75 1.5 18.75C1.5 19.7446 1.89509 20.6984 2.59835 21.4017C3.30161 22.1049 4.25544 22.5 5.25 22.5H18.75C19.7446 22.5 20.6984 22.1049 21.4017 21.4017C22.1049 20.6984 22.5 19.7446 22.5 18.75C22.5 15.75 17.775 12.75 12 12.75Z" fill="currentColor"/>
</svg>
