<svg width="24" height="24" viewBox="0 0 24 24" fill="none" xmlns="http://www.w3.org/2000/svg">
<path d="M12 22C10.6167 22 9.31667 21.7373 8.1 21.212C6.88334 20.6867 5.825 19.9743 4.925 19.075C4.025 18.1757 3.31267 17.1173 2.788 15.9C2.26333 14.6827 2.00067 13.3827 2 12C1.99933 10.6173 2.262 9.31733 2.788 8.1C3.314 6.88267 4.02633 5.82433 4.925 4.925C5.82367 4.02567 6.882 3.31333 8.1 2.788C9.318 2.26267 10.618 2 12 2C13.382 2 14.682 2.26267 15.9 2.788C17.118 3.31333 18.1763 4.02567 19.075 4.925C19.9737 5.82433 20.6863 6.88267 21.213 8.1C21.7397 9.31733 22.002 10.6173 22 12C21.998 13.3827 21.7353 14.6827 21.212 15.9C20.6887 17.1173 19.9763 18.1757 19.075 19.075C18.1737 19.9743 17.1153 20.687 15.9 21.213C14.6847 21.739 13.3847 22.0013 12 22ZM11 19.95V18C10.45 18 9.97934 17.8043 9.588 17.413C9.19667 17.0217 9.00067 16.5507 9 16V15L4.2 10.2C4.15 10.5 4.10433 10.8 4.063 11.1C4.02167 11.4 4.00067 11.7 4 12C4 14.0167 4.66267 15.7833 5.988 17.3C7.31333 18.8167 8.984 19.7 11 19.95ZM17.9 17.4C18.2333 17.0333 18.5333 16.6377 18.8 16.213C19.0667 15.7883 19.2873 15.3467 19.462 14.888C19.6367 14.4293 19.77 13.9583 19.862 13.475C19.954 12.9917 20 12.5 20 12C20 10.3667 19.5457 8.875 18.637 7.525C17.7283 6.175 16.516 5.2 15 4.6V5C15 5.55 14.8043 6.021 14.413 6.413C14.0217 6.805 13.5507 7.00067 13 7H11V9C11 9.28333 10.904 9.521 10.712 9.713C10.52 9.905 10.2827 10.0007 10 10H8V12H14C14.2833 12 14.521 12.096 14.713 12.288C14.905 12.48 15.0007 12.7173 15 13V16H16C16.4333 16 16.825 16.1293 17.175 16.388C17.525 16.6467 17.7667 16.984 17.9 17.4Z" fill="currentColor"/>
</svg>
