<svg width="20" height="20" viewBox="0 0 20 20" fill="none" xmlns="http://www.w3.org/2000/svg">
<path d="M18.1914 11.2915L18.1961 11.2937C18.2692 10.8718 18.3045 10.441 18.3045 10.0146C18.3045 9.63289 18.2739 9.24894 18.2173 8.87392C18.2739 9.24671 18.3022 9.62396 18.3022 10.0012C18.3022 10.4343 18.2645 10.8673 18.1914 11.2915ZM0.264212 7.4609C0.252422 7.45197 0.242991 7.44304 0.231201 7.43188C0.247707 7.4475 0.264212 7.46313 0.283075 7.47875L1.8275 8.72659V8.72436L0.264212 7.4609ZM12.9167 2.6392H12.9191L12.5536 0.768558C12.5489 0.746236 12.5442 0.726145 12.5371 0.706055C12.5395 0.717216 12.5442 0.73061 12.5465 0.741771L12.9167 2.6392ZM14.19 14.8385L14.9304 14.2626L17.1185 14.997C17.5194 14.4858 17.8565 13.9367 18.123 13.3541L16.3616 11.9277L16.5172 11.0325C16.5762 10.6954 16.6068 10.3494 16.6068 10.0034C16.6068 9.65745 16.5762 9.31144 16.5172 8.97437L16.364 8.0837L18.1253 6.65728C17.8565 6.07689 17.5217 5.52552 17.1209 5.01433L14.9327 5.74875L14.1924 5.17282C13.6288 4.7353 12.9993 4.39153 12.3225 4.15044L11.4242 3.83123L11.0021 1.66593C10.3362 1.5945 9.66383 1.5945 8.99789 1.66593L8.57582 3.83569L7.68218 4.15491C7.01018 4.39599 6.38533 4.73976 5.82651 5.17505L5.08613 5.75321L2.88384 5.0121C2.483 5.52329 2.14582 6.07242 1.87938 6.65505L3.65959 8.09486L3.50633 8.98777C3.44738 9.32037 3.41909 9.66191 3.41909 10.0034C3.41909 10.3428 3.44974 10.6865 3.50633 11.0191L3.65959 11.912L1.87938 13.3518C2.14818 13.9322 2.483 14.4836 2.88384 14.9948L5.08613 14.2537L5.82651 14.8318C6.38533 15.2671 7.01018 15.6109 7.68218 15.852L8.57347 16.1757L8.99553 18.3454C9.66046 18.4169 10.3372 18.4169 10.9998 18.3454L11.4218 16.1801L12.3202 15.8609C12.9993 15.6198 13.6265 15.2761 14.19 14.8385ZM10.0141 13.7157C9.29499 13.7157 8.61827 13.5416 8.02643 13.2358C6.73194 12.5706 5.85244 11.2736 5.85244 9.78022C5.85244 7.61046 7.71047 5.85143 10.0024 5.85143C11.5798 5.85143 12.9497 6.68407 13.6524 7.90958C13.9754 8.46765 14.1593 9.10831 14.1593 9.79138C14.1593 11.9589 12.3037 13.7157 10.0141 13.7157ZM2.81546 16.7181C2.68578 16.7605 2.55138 16.7694 2.42405 16.7449C2.55845 16.7717 2.69993 16.7672 2.83669 16.7226L4.75602 16.0752C4.75366 16.073 4.74895 16.0707 4.74659 16.0685L2.81546 16.7181ZM19.7358 7.4609L18.1914 8.71097C18.1914 8.71543 18.1937 8.72213 18.1937 8.72659L19.7358 7.47875C19.9032 7.34258 19.9975 7.14615 19.9999 6.94301C19.9928 7.13945 19.8985 7.32919 19.7358 7.4609Z" fill="#D6DCE6"/>
<path d="M14.1514 9.78013C14.1514 9.10379 13.9699 8.4654 13.6516 7.9096C12.9489 6.68415 11.5791 5.85156 10.0017 5.85156C7.70998 5.85156 5.85205 7.61049 5.85205 9.78013C5.85205 11.2734 6.7315 12.5703 8.02592 13.2355C8.613 13.5368 9.28497 13.7087 10.0017 13.7087C12.2935 13.7087 14.1514 11.9498 14.1514 9.78013ZM7.36103 9.78013C7.36103 9.11272 7.63688 8.48549 8.13437 8.01228C8.63422 7.53906 9.29676 7.28013 10.0017 7.28013C10.7067 7.28013 11.3692 7.53906 11.8691 8.01228C12.1147 8.24415 12.3095 8.51971 12.4422 8.8231C12.5749 9.1265 12.643 9.45175 12.6424 9.78013C12.6424 10.4475 12.3666 11.0748 11.8691 11.548C11.6242 11.7805 11.3331 11.9649 11.0126 12.0906C10.6922 12.2162 10.3486 12.2806 10.0017 12.2801C9.29676 12.2801 8.63422 12.019 8.13437 11.548C7.88875 11.3161 7.69398 11.0406 7.56125 10.7372C7.42853 10.4338 7.36049 10.1085 7.36103 9.78013Z" fill="#9399A2"/>
<path d="M11.9381 19.8303C12.089 19.8045 12.228 19.7357 12.3367 19.6332C12.4453 19.5308 12.5185 19.3994 12.5464 19.2567L12.9166 17.3592C13.7698 17.0564 14.5642 16.622 15.2674 16.0734L17.1844 16.7186C17.3288 16.7669 17.4853 16.7725 17.6331 16.7346C17.781 16.6968 17.9131 16.6172 18.012 16.5065L18.0545 16.4596C18.875 15.5422 19.5069 14.5064 19.9337 13.3813L19.9549 13.3233C19.995 13.2206 20.0068 13.1135 19.995 13.0085C19.9738 12.8322 19.8842 12.6648 19.7357 12.542L18.196 11.2942L18.1912 11.2919C18.2643 10.8678 18.3021 10.4347 18.3021 10.0017C18.3021 9.62442 18.2738 9.24493 18.2172 8.87438C18.2101 8.82527 18.2007 8.77616 18.1936 8.72705C18.1936 8.72258 18.1912 8.71589 18.1912 8.71142L19.7357 7.46135C19.8984 7.32965 19.9927 7.13991 19.9997 6.94347C20.0021 6.85418 19.988 6.76265 19.9549 6.6756L19.9337 6.61756C19.5086 5.49254 18.8719 4.44965 18.0545 3.53926L18.012 3.49238C17.9129 3.382 17.7807 3.30265 17.633 3.2648C17.4852 3.22694 17.3288 3.23235 17.1844 3.28032L15.2674 3.92544C14.5601 3.3763 13.7725 2.94324 12.919 2.63966H12.9166L12.5464 0.742229C12.5441 0.731067 12.5417 0.717674 12.537 0.706513C12.5029 0.571549 12.4282 0.448855 12.3219 0.353348C12.2156 0.257841 12.0822 0.193635 11.9381 0.168536L11.8744 0.157375C10.6459 -0.0524583 9.35381 -0.0524583 8.12534 0.157375L8.06168 0.168536C7.91076 0.194423 7.77174 0.263169 7.66308 0.36564C7.55442 0.468112 7.48127 0.599458 7.45334 0.742229L7.08079 2.64859C6.23405 2.95225 5.44552 3.38508 4.74647 3.92991L2.81534 3.28032C2.67096 3.23197 2.51445 3.22636 2.36662 3.26424C2.21879 3.30212 2.08664 3.38169 1.98772 3.49238L1.94528 3.53926C1.12883 4.4503 0.492269 5.49302 0.0660261 6.61756L0.0448049 6.6756C-0.00433124 6.80533 -0.0128926 6.94573 0.0201474 7.07995C0.0531874 7.21418 0.126426 7.33653 0.231079 7.43233C0.242869 7.44126 0.252301 7.45242 0.26409 7.46135L1.82738 8.72482V8.72705C1.75429 9.14672 1.71892 9.57308 1.71892 9.99944C1.71892 10.428 1.75429 10.8566 1.82738 11.2741L0.26409 12.5375C0.147599 12.6319 0.0642257 12.7577 0.0250551 12.898C-0.0141155 13.0384 -0.00722698 13.1867 0.0448049 13.3233L0.0660261 13.3813C0.492807 14.5064 1.12473 15.5444 1.94528 16.4596L1.98772 16.5065C2.10326 16.6337 2.25652 16.7163 2.42393 16.7454C2.55126 16.7677 2.68566 16.761 2.81534 16.7186L4.74647 16.069C4.74882 16.0712 4.75354 16.0734 4.7559 16.0757C5.4562 16.6181 6.23666 17.0489 7.08079 17.3503L7.45334 19.2567C7.48127 19.3994 7.55442 19.5308 7.66308 19.6332C7.77174 19.7357 7.91076 19.8045 8.06168 19.8303L8.12534 19.8415C8.74076 19.9464 9.37032 20 9.99988 20H10.0069C10.6342 20 11.2637 19.9464 11.8744 19.8415L11.9381 19.8303ZM10.9996 18.3459C10.3337 18.4173 9.66135 18.4173 8.99541 18.3459L8.57334 16.1761L7.68206 15.8524C7.01005 15.6114 6.38521 15.2676 5.82639 14.8323L5.086 14.2541L2.88372 14.9953C2.48288 14.4841 2.14806 13.9327 1.87925 13.3523L3.65947 11.9125L3.50621 11.0196C3.44962 10.687 3.41897 10.3432 3.41897 10.0039C3.41897 9.66237 3.44726 9.32083 3.50621 8.98822L3.65947 8.09532L1.87925 6.6555C2.1457 6.07288 2.48288 5.52374 2.88372 5.01256L5.086 5.75367L5.82639 5.17551C6.38521 4.74022 7.01005 4.39645 7.68206 4.15537L8.5757 3.83615L8.99777 1.66639C9.66034 1.59496 10.3371 1.59496 11.002 1.66639L11.424 3.83169L12.3224 4.1509C12.9991 4.39199 13.6287 4.73575 14.1922 5.17328L14.9326 5.7492L17.1207 5.01479C17.5216 5.52598 17.8564 6.07735 18.1252 6.65774L16.3639 8.08416L16.5171 8.97483C16.5761 9.3119 16.6067 9.6579 16.6067 10.0039C16.6067 10.3499 16.5761 10.6959 16.5171 11.033L16.3615 11.9281L18.1229 13.3545C17.8558 13.9369 17.5188 14.4882 17.1184 14.9975L14.9303 14.2631L14.1899 14.839C13.6263 15.2765 12.9991 15.6203 12.3201 15.8614L11.4217 16.1806L10.9996 18.3459Z" fill="#9399A2"/>
</svg>
