<svg width="19" height="16" viewBox="0 0 19 16" fill="none" xmlns="http://www.w3.org/2000/svg">
<path d="M12.4994 1.38524C12.7499 1.55589 12.9224 1.81906 12.9789 2.11687C13.0354 2.41468 12.9712 2.72272 12.8006 2.97324C12.6299 3.22375 12.3667 3.39622 12.0689 3.45269C11.7711 3.50917 11.4631 3.44503 11.2126 3.27438C10.1575 2.55711 8.89266 2.21357 7.61965 2.29849C6.34665 2.38341 5.13869 2.89191 4.1882 3.74297C3.23771 4.59404 2.59937 5.73871 2.37488 6.99463C2.15039 8.25056 2.35266 9.54549 2.94947 10.6731C3.54627 11.8008 4.50329 12.6962 5.66804 13.2169C6.8328 13.7376 8.1383 13.8534 9.37655 13.5461C10.6148 13.2388 11.7146 12.5259 12.5007 11.521C13.2868 10.5161 13.714 9.27706 13.7143 8.00123C13.7143 7.69813 13.8347 7.40744 14.049 7.19311C14.2633 6.97879 14.554 6.85838 14.8571 6.85838C15.1602 6.85838 15.4509 6.97879 15.6653 7.19311C15.8796 7.40744 16 7.69813 16 8.00123C15.9997 9.78751 15.4016 11.5223 14.301 12.9292C13.2004 14.3361 11.6606 15.3342 9.9269 15.7645C8.19321 16.1947 6.36541 16.0324 4.7347 15.3033C3.104 14.5742 1.76421 13.3203 0.928816 11.7414C0.0934165 10.1625 -0.189533 8.34948 0.125047 6.59112C0.439628 4.83277 1.33364 3.23028 2.66464 2.03898C3.99565 0.847674 5.68706 0.136098 7.4694 0.0176226C9.25174 -0.100853 11.0225 0.380588 12.4994 1.38524Z" fill="#B7D000"/>
<path d="M12.0444 10.8655C11.918 10.9464 11.7769 11.0016 11.6291 11.028C11.4813 11.0543 11.3298 11.0513 11.1832 11.0191C11.0366 10.9869 10.8977 10.9261 10.7746 10.8403C10.6515 10.7544 10.5465 10.6451 10.4656 10.5187C10.3847 10.3922 10.3295 10.2511 10.3031 10.1033C10.2768 9.95555 10.2798 9.80403 10.312 9.65742C10.3442 9.51081 10.405 9.37198 10.4909 9.24885C10.5767 9.12573 10.686 9.02072 10.8124 8.93983L14.7919 6.39468C15.0472 6.23669 15.3544 6.1855 15.6471 6.25218C15.9398 6.31885 16.1946 6.49803 16.3563 6.751C16.5179 7.00397 16.5736 7.3104 16.5112 7.60406C16.4488 7.89773 16.2733 8.15505 16.0227 8.3204L12.0444 10.8655Z" fill="#B7D000"/>
<path d="M18.1748 10.7555C18.2915 11.0311 18.2954 11.3415 18.1857 11.6199C18.076 11.8984 17.8615 12.1227 17.5882 12.2446C17.3149 12.3666 17.0047 12.3765 16.7242 12.2723C16.4436 12.168 16.2152 11.9578 16.088 11.6869L14.3645 7.82409C14.2999 7.68656 14.2634 7.53753 14.2571 7.38572C14.2508 7.23391 14.2748 7.08236 14.3277 6.93994C14.3807 6.79752 14.4615 6.66708 14.5654 6.55627C14.6694 6.44545 14.7944 6.35647 14.9332 6.29455C15.0719 6.23262 15.2216 6.19898 15.3735 6.1956C15.5254 6.19221 15.6765 6.21916 15.8179 6.27485C15.9592 6.33054 16.0881 6.41387 16.1969 6.51995C16.3056 6.62603 16.3922 6.75273 16.4514 6.89266L18.1748 10.7555Z" fill="#B7D000"/>
</svg>
