<svg width="28" height="28" viewBox="0 0 28 28" fill="none" xmlns="http://www.w3.org/2000/svg">
<path d="M18.6667 7.00016V6.06683C18.6667 4.76004 18.6667 4.10665 18.4123 3.60752C18.1886 3.16847 17.8317 2.81152 17.3926 2.58781C16.8935 2.3335 16.2401 2.3335 14.9333 2.3335H13.0667C11.7599 2.3335 11.1065 2.3335 10.6074 2.58781C10.1683 2.81152 9.81136 3.16847 9.58765 3.60752C9.33333 4.10665 9.33333 4.76004 9.33333 6.06683V7.00016M11.6667 13.4168V19.2502M16.3333 13.4168V19.2502M3.5 7.00016H24.5M22.1667 7.00016V20.0668C22.1667 22.027 22.1667 23.0071 21.7852 23.7558C21.4496 24.4144 20.9142 24.9498 20.2556 25.2854C19.5069 25.6668 18.5269 25.6668 16.5667 25.6668H11.4333C9.47315 25.6668 8.49306 25.6668 7.74437 25.2854C7.0858 24.9498 6.55037 24.4144 6.21481 23.7558C5.83333 23.0071 5.83333 22.027 5.83333 20.0668V7.00016" stroke="#FF6C49" stroke-width="2" stroke-linecap="round" stroke-linejoin="round"/>
</svg>
