<svg width="38" height="38" viewBox="0 0 38 38" fill="none" xmlns="http://www.w3.org/2000/svg">
<g opacity="0.12">
<path d="M29.5827 30.7776C26.7783 33.2992 23.0684 34.8335 19.0002 34.8335C14.932 34.8335 11.2221 33.2992 8.41766 30.7776C9.38085 28.5084 11.6297 26.9168 14.2502 26.9168H23.7502C26.3707 26.9168 28.6195 28.5084 29.5827 30.7776Z" fill="#FF9500"/>
<path d="M19 21.3752C22.4978 21.3752 25.3334 18.5396 25.3334 15.0418C25.3334 11.544 22.4978 8.7085 19 8.7085C15.5022 8.7085 12.6667 11.544 12.6667 15.0418C12.6667 18.5396 15.5022 21.3752 19 21.3752Z" fill="#FF9500"/>
</g>
<path d="M8.41749 30.7773C9.38067 28.5081 11.6295 26.9165 14.25 26.9165H23.75C26.3706 26.9165 28.6194 28.5081 29.5825 30.7773M25.3334 15.0415C25.3334 18.5393 22.4978 21.3748 19 21.3748C15.5022 21.3748 12.6667 18.5393 12.6667 15.0415C12.6667 11.5437 15.5022 8.70817 19 8.70817C22.4978 8.70817 25.3334 11.5437 25.3334 15.0415ZM34.8334 18.9998C34.8334 27.7443 27.7445 34.8332 19 34.8332C10.2555 34.8332 3.16669 27.7443 3.16669 18.9998C3.16669 10.2553 10.2555 3.1665 19 3.1665C27.7445 3.1665 34.8334 10.2553 34.8334 18.9998Z" stroke="#FF9500" stroke-width="3.33333" stroke-linecap="round" stroke-linejoin="round"/>
</svg>
