<svg width="392" height="440" viewBox="0 0 392 440" fill="none" xmlns="http://www.w3.org/2000/svg">
<path d="M347.459 201.573C350.146 201.233 351.872 204.346 350.16 206.445L188.207 405.002C186.54 407.046 183.237 406.099 182.906 403.482L160.743 228.207C160.535 226.563 161.699 225.062 163.343 224.854L347.459 201.573Z" fill="#FF9500" stroke="black" stroke-width="8"/>
<path d="M43.931 238.204C41.2455 238.533 39.5304 235.42 41.2443 233.326L203.178 35.5071C204.85 33.4642 208.156 34.4216 208.477 37.042L229.986 212.355C230.187 214 229.018 215.496 227.373 215.698L43.931 238.204Z" fill="#FF9500" stroke="black" stroke-width="8"/>
<path d="M163.348 219.367L225.933 210.81L227.862 224.915L165.276 233.472L163.348 219.367Z" fill="#FF9500"/>
<path d="M147.358 142.823C147.358 154.476 144.368 164.861 139.718 172.222C135.041 179.629 129.015 183.546 122.924 183.546C116.833 183.546 110.808 179.629 106.13 172.222C101.48 164.861 98.4905 154.476 98.4905 142.823C98.4905 131.17 101.48 120.785 106.13 113.423C110.808 106.017 116.833 102.1 122.924 102.1C129.015 102.1 135.041 106.017 139.718 113.423C144.368 120.785 147.358 131.17 147.358 142.823Z" fill="white" stroke="black" stroke-width="6.98106"/>
<ellipse cx="115.379" cy="161.44" rx="12.8301" ry="22.4945" fill="#0C1116"/>
<path d="M315.434 298.063L377.608 331.003" stroke="#FF6C49" stroke-width="7" stroke-linecap="round"/>
<path d="M291.648 329.127L340.418 378.647" stroke="#FF6C49" stroke-width="7" stroke-linecap="round"/>
<path d="M262.756 355.456L289.5 418.777" stroke="#FF6C49" stroke-width="7" stroke-linecap="round"/>
</svg>
