<svg width="392" height="471" viewBox="0 0 392 471" fill="none" xmlns="http://www.w3.org/2000/svg">
<path d="M336.738 94.4441C338.183 78.8071 343.377 74.4259 351.85 70.2053C356.885 67.6924 361.018 63.3388 361.573 56.7998C362.246 48.8596 356.484 43.3134 348.777 42.6594C342.121 42.0946 335.129 45.4999 333.616 55.0154L322.99 54.1138C324.773 40.0344 336.219 32.6555 349.53 33.7851C364.126 35.0236 372.899 45.2943 371.809 58.1388C371.036 67.2467 366.17 73.3023 358.554 77.1251C350.938 80.948 347.876 85.1573 346.78 95.2962L346.731 95.8801L336.689 95.0279L336.738 94.4441ZM339.979 120.005C335.892 119.658 332.677 115.975 333.15 111.781C333.38 107.684 337.171 104.595 341.257 104.942C345.344 105.289 348.443 108.962 348.096 113.049C347.74 117.253 344.066 120.352 339.979 120.005Z" fill="#FF6C49"/>
<path d="M276.982 64.9144C275.407 50.6059 279.267 45.7172 286.101 40.3705C290.162 37.1888 293.074 32.5198 292.371 26.5454C291.518 19.2907 285.324 15.3683 278.282 16.1966C272.201 16.9119 266.547 21.2545 266.936 30.0781L257.227 31.2201C256.242 18.2483 265.166 9.51902 277.329 8.08839C290.664 6.51972 300.429 14.1323 301.81 25.8678C302.788 34.1893 299.531 40.5214 293.394 45.3535C287.256 50.1857 285.279 54.5284 286.157 63.8352L286.22 64.3686L277.045 65.4479L276.982 64.9144ZM284.588 87.2747C280.854 87.7139 277.289 84.9965 276.944 81.1433C276.398 77.4218 279.235 73.9514 282.969 73.5122C286.703 73.0729 290.161 75.8029 290.6 79.5369C291.052 83.3777 288.322 86.8355 284.588 87.2747Z" fill="#FF6C49"/>
<path d="M43.9587 232.573C41.2717 232.233 39.5457 235.347 41.2576 237.446L203.21 436.003C204.877 438.046 208.181 437.099 208.511 434.483L230.675 259.207C230.883 257.564 229.719 256.062 228.075 255.855L43.9587 232.573Z" fill="#FF9500" stroke="black" stroke-width="8"/>
<path d="M347.486 269.204C350.172 269.533 351.887 266.42 350.173 264.326L188.239 66.5071C186.567 64.4642 183.262 65.4216 182.94 68.042L161.432 243.355C161.23 245 162.4 246.496 164.044 246.698L347.486 269.204Z" fill="#FF9500" stroke="black" stroke-width="8"/>
<path d="M228.07 250.368L165.484 241.811L163.555 255.916L226.141 264.473L228.07 250.368Z" fill="#FF9500"/>
<path d="M248.06 163.213C248.06 174.866 251.05 185.251 255.699 192.613C260.377 200.019 266.402 203.936 272.493 203.936C278.584 203.936 284.61 200.019 289.288 192.613C293.937 185.251 296.927 174.866 296.927 163.213C296.927 151.561 293.937 141.175 289.288 133.814C284.61 126.407 278.584 122.491 272.493 122.491C266.402 122.491 260.377 126.407 255.699 133.814C251.05 141.175 248.06 151.561 248.06 163.213Z" fill="white" stroke="black" stroke-width="6.98106"/>
<ellipse cx="12.8301" cy="22.4945" rx="12.8301" ry="22.4945" transform="matrix(-1 0 0 1 296.66 129)" fill="#0C1116"/>
</svg>
